<svg width="63" height="62" viewBox="0 0 63 62" fill="none" xmlns="http://www.w3.org/2000/svg">
<path d="M0 10C0 4.47715 4.47715 0 10 0H53C58.5228 0 63 4.47715 63 10V52C63 57.5228 58.5228 62 53 62H10C4.47715 62 0 57.5228 0 52V10Z" fill="#4E4E4E"/>
<path d="M24.159 33.4427C19.947 30.1967 15 26.3852 15 19.7777C15 12.8777 22.3845 7.87522 28.896 13.2932L26.715 18.3782C26.6138 18.6141 26.5962 18.8774 26.6652 19.1246C26.7342 19.3718 26.8857 19.588 27.0945 19.7372L31.344 22.7732L27.645 27.0902C27.4607 27.3054 27.3644 27.5821 27.3752 27.8652C27.386 28.1482 27.5033 28.4168 27.7035 28.6172L30.2535 31.1672L28.8885 36.6272C27.7545 36.2477 26.6145 35.3627 25.4415 34.4372C25.026 34.1102 24.5955 33.7802 24.1575 33.4427H24.159Z" fill="#F8F8F8"/>
<path d="M31.2181 36.5899C32.3161 36.1924 33.4216 35.3344 34.5571 34.4389C34.9726 34.1104 35.4031 33.7789 35.8411 33.4429C40.0531 30.1969 45.0001 26.3854 45.0001 19.7779C45.0001 13.0054 37.8886 8.06288 31.4701 13.0009L29.1406 18.4339L33.6541 21.6574C33.781 21.7482 33.8876 21.8644 33.9672 21.9986C34.0467 22.1328 34.0975 22.2821 34.1163 22.437C34.135 22.5919 34.1214 22.749 34.0762 22.8983C34.0309 23.0476 33.9552 23.1859 33.8536 23.3044L30.0316 27.7639L32.2966 30.0274C32.4339 30.1648 32.5332 30.3353 32.585 30.5225C32.6368 30.7096 32.6392 30.907 32.5921 31.0954L31.2181 36.5899Z" fill="#F8F8F8"/>
<path d="M28.3795 44.64H29.7095V51.45H28.3795V44.64ZM29.3295 47.24H30.9395V48.33H29.3295V47.24ZM23.7395 52.67H30.0395V53.73H23.7395V52.67ZM23.7395 50.76H25.0695V52.9H23.7395V50.76ZM22.6895 45.29H24.0095V46.62H25.8195V45.29H27.1395V49.99H22.6895V45.29ZM24.0095 47.63V48.95H25.8195V47.63H24.0095ZM38.3088 44.63H39.5688V53.89H38.3088V44.63ZM37.0688 48.19H38.6088V49.26H37.0688V48.19ZM36.2388 44.79H37.4688V53.45H36.2388V44.79ZM31.8787 50.71H32.5288C33.6688 50.71 34.6188 50.67 35.7188 50.47L35.8188 51.55C34.6988 51.77 33.7188 51.8 32.5288 51.8H31.8787V50.71ZM31.8787 45.7H35.2988V46.77H33.1988V51.23H31.8787V45.7Z" fill="white"/>
</svg>
