<svg width="12" height="12" viewBox="0 0 12 12" fill="none" xmlns="http://www.w3.org/2000/svg">
<path d="M2.5 9.0843L5.25812 9.07492L11.2781 3.11242C11.5144 2.87617 11.6444 2.56242 11.6444 2.22867C11.6444 1.89492 11.5144 1.58117 11.2781 1.34492L10.2869 0.353672C9.81437 -0.118828 8.99 -0.116328 8.52125 0.351797L2.5 6.31555V9.0843ZM9.40312 1.23742L10.3962 2.2268L9.39812 3.21555L8.40687 2.22492L9.40312 1.23742ZM3.75 6.8368L7.51875 3.10367L8.51 4.09492L4.74187 7.8268L3.75 7.82992V6.8368Z" fill="#505050"/>
<path d="M1.25 11.7012H10C10.6894 11.7012 11.25 11.1405 11.25 10.4512V5.03367L10 6.28367V10.4512H3.22375C3.2075 10.4512 3.19063 10.4574 3.17438 10.4574C3.15375 10.4574 3.13313 10.4518 3.11188 10.4512H1.25V1.70117H5.52938L6.77938 0.451172H1.25C0.560625 0.451172 0 1.0118 0 1.70117V10.4512C0 11.1405 0.560625 11.7012 1.25 11.7012Z" fill="#505050"/>
</svg>
