<svg width="63" height="62" viewBox="0 0 63 62" fill="none" xmlns="http://www.w3.org/2000/svg">
<path d="M0 10C0 4.47715 4.47715 0 10 0H53C58.5228 0 63 4.47715 63 10V52C63 57.5228 58.5228 62 53 62H10C4.47715 62 0 57.5228 0 52V10Z" fill="#7795FF"/>
<path d="M31 38L28.825 35.9858C21.1 28.8599 16 24.145 16 18.3924C16 13.6774 19.63 10 24.25 10C26.86 10 29.365 11.236 31 13.1738C32.635 11.236 35.14 10 37.75 10C42.37 10 46 13.6774 46 18.3924C46 24.145 40.9 28.8599 33.175 35.9858L31 38Z" fill="white"/>
<path d="M25.9395 50.56H27.2595V53.9H25.9395V50.56ZM22.4295 50.17H30.7995V51.25H22.4295V50.17ZM25.9295 46.29H27.0995V46.51C27.0995 48.06 25.7595 49.41 23.3095 49.7L22.8495 48.66C24.9395 48.42 25.9295 47.37 25.9295 46.51V46.29ZM26.0995 46.29H27.2695V46.51C27.2695 47.35 28.2695 48.42 30.3495 48.66L29.8795 49.7C27.4395 49.42 26.0995 48.02 26.0995 46.51V46.29ZM23.1795 45.69H30.0395V46.74H23.1795V45.69ZM25.9395 44.65H27.2595V46.05H25.9395V44.65ZM33.6988 46.44H34.7788V46.8C34.7788 48.49 33.9588 50 32.1988 50.55L31.5588 49.51C33.0588 49.04 33.6988 47.92 33.6988 46.8V46.44ZM33.9388 46.44H35.0288V46.8C35.0288 47.84 35.6788 48.91 37.1788 49.36L36.5388 50.4C34.7888 49.88 33.9388 48.42 33.9388 46.8V46.44ZM31.8787 45.72H36.8488V46.76H31.8787V45.72ZM33.6988 44.7H35.0288V46.11H33.6988V44.7ZM36.5588 47.32H38.7088V48.41H36.5588V47.32ZM38.0388 44.64H39.3688V51.49H38.0388V44.64ZM33.2588 52.67H39.5788V53.73H33.2588V52.67ZM33.2588 50.92H34.5888V53.37H33.2588V50.92Z" fill="white"/>
</svg>
