<svg width="63" height="62" viewBox="0 0 63 62" fill="none" xmlns="http://www.w3.org/2000/svg">
<path d="M0 10C0 4.47715 4.47715 0 10 0H53C58.5228 0 63 4.47715 63 10V52C63 57.5228 58.5228 62 53 62H10C4.47715 62 0 57.5228 0 52V10Z" fill="#4E4E4E"/>
<path d="M31 38L28.825 35.9858C21.1 28.8599 16 24.145 16 18.3924C16 13.6774 19.63 10 24.25 10C26.86 10 29.365 11.236 31 13.1738C32.635 11.236 35.14 10 37.75 10C42.37 10 46 13.6774 46 18.3924C46 24.145 40.9 28.8599 33.175 35.9858L31 38Z" fill="white"/>
<path d="M26.1895 50.49H27.0095V53.79H26.1895V50.49ZM22.5195 50.2H30.6895V50.89H22.5195V50.2ZM26.1795 46.29H26.9095V46.52C26.9095 48.08 25.2195 49.23 23.3195 49.52L23.0295 48.86C24.6595 48.64 26.1795 47.65 26.1795 46.52V46.29ZM26.2895 46.29H27.0095V46.52C27.0095 47.64 28.5395 48.64 30.1595 48.86L29.8595 49.52C27.9695 49.24 26.2895 48.06 26.2895 46.52V46.29ZM23.3095 45.85H29.8995V46.53H23.3095V45.85ZM26.1895 44.74H27.0095V46.09H26.1895V44.74ZM33.9688 46.44H34.6488V46.89C34.6488 48.52 33.6588 49.86 32.1488 50.39L31.7388 49.74C33.0788 49.28 33.9688 48.16 33.9688 46.89V46.44ZM34.1088 46.44H34.7988V46.89C34.7988 48.09 35.7188 49.15 37.0588 49.57L36.6488 50.23C35.1388 49.73 34.1088 48.45 34.1088 46.89V46.44ZM31.9688 45.95H36.7888V46.62H31.9688V45.95ZM33.9688 44.8H34.7988V46.2H33.9688V44.8ZM36.4888 47.52H38.7688V48.21H36.4888V47.52ZM38.3188 44.75H39.1488V51.49H38.3188V44.75ZM33.3788 52.9H39.3988V53.58H33.3788V52.9ZM33.3788 50.89H34.2088V53.27H33.3788V50.89Z" fill="white"/>
</svg>
