<svg width="20" height="21" viewBox="0 0 20 21" fill="none" xmlns="http://www.w3.org/2000/svg">
<path d="M15.6132 4.58222L18.7077 1.53868C18.8391 1.40946 19.0564 1.4307 19.1599 1.58287L19.8738 2.63232C19.9721 2.77688 19.9223 2.97417 19.7669 3.05556L15.9585 5.04964C15.8942 5.08332 15.8196 5.09223 15.7491 5.07466C15.6785 5.0571 15.617 5.0143 15.5763 4.95447C15.5378 4.89789 15.5204 4.82972 15.5271 4.76174C15.5338 4.69377 15.5643 4.63027 15.6132 4.58222ZM16.1249 7.19589C16.1365 7.25219 16.1686 7.30225 16.2151 7.33647C16.2616 7.37068 16.3192 7.38664 16.3768 7.38128L19.7878 7.06508C19.8206 7.06204 19.8525 7.05216 19.8812 7.03608C19.9099 7.02001 19.9349 6.9981 19.9546 6.97178C19.9742 6.94547 19.9881 6.91533 19.9952 6.88335C20.0023 6.85137 20.0026 6.81825 19.996 6.78616L19.7925 5.7989C19.763 5.65577 19.6097 5.57451 19.4735 5.62987L16.266 6.93329C16.2154 6.95388 16.1736 6.99138 16.1478 7.03933C16.122 7.08728 16.1139 7.14265 16.1249 7.19589ZM13.5781 3.60166C13.6264 3.63332 13.6847 3.64616 13.742 3.63772C13.7992 3.62928 13.8513 3.60015 13.8882 3.55592L16.075 0.937292C16.096 0.912073 16.1115 0.882733 16.1204 0.851184C16.1292 0.819634 16.1313 0.786582 16.1265 0.75418C16.1216 0.721779 16.11 0.690755 16.0922 0.663129C16.0745 0.635503 16.0511 0.611895 16.0236 0.593843L15.1767 0.038653C15.0539 -0.0418288 14.8877 0.00833423 14.8308 0.143112L13.4909 3.31693C13.4698 3.36704 13.4669 3.42292 13.4828 3.47491C13.4987 3.5269 13.5324 3.57173 13.5781 3.60166Z" fill="#FFD469"/>
<path d="M8.47083 19.4695L7.81206 19.8521C7.27656 20.163 6.58862 19.9841 6.27546 19.4523L4.52881 16.4864C4.21566 15.9547 4.39588 15.2716 4.93138 14.9606L5.59015 14.578C6.12564 14.2671 6.81359 14.446 7.12675 14.9778L8.8734 17.9437C9.18659 18.4754 9.00633 19.1585 8.47083 19.4695Z" fill="#00B1FF"/>
<path d="M4.43577 16.5588L10.8188 13.1079L6.45532 6.32373L0.685429 10.5803C0.648221 10.604 -0.911282 12.0209 0.801378 14.6837C2.51404 17.3466 4.43577 16.5588 4.43577 16.5588Z" fill="#0096D1"/>
<path d="M14.4196 6.06538C16.3288 9.03376 17.4855 12.2495 16.6867 12.7561C15.888 13.2626 13.4363 10.8682 11.5271 7.89977C9.61789 4.93135 8.46124 1.71568 9.25995 1.20909C10.0587 0.702513 12.5104 3.09696 14.4196 6.06538Z" fill="#727272"/>
<path d="M13.5076 10.183C14.1693 9.76328 13.9797 8.29438 13.0841 6.90208C12.1886 5.50978 10.9262 4.72131 10.2645 5.14099C9.60281 5.56067 9.79239 7.02956 10.6879 8.42186C11.5835 9.81416 12.8459 10.6026 13.5076 10.183Z" fill="#B2B2B2"/>
<path d="M16.642 12.778C15.9444 13.2205 13.5746 10.7741 11.6654 7.80567C9.7562 4.83725 8.5176 1.6735 9.21527 1.23103C9.25544 1.20554 9.30052 1.18872 9.34976 1.17944C9.02062 1.17195 8.69815 1.3424 8.50734 1.70476C7.66644 3.30163 5.52039 6.84455 5.52039 6.84455C5.52039 6.84455 4.45546 8.26843 6.3275 11.179C8.19954 14.0896 10.0069 13.7253 10.0069 13.7253C10.0069 13.7253 14.1126 13.3088 15.9166 13.2233C16.3437 13.203 16.6411 12.9676 16.7647 12.6499C16.7319 12.7035 16.6913 12.7467 16.642 12.778Z" fill="#D1D1D1"/>
<path d="M1.65908 12.4448C1.5615 12.4449 1.46548 12.4206 1.37989 12.3741C1.2943 12.3276 1.22192 12.2603 1.16944 12.1786C0.996921 11.9104 1.07603 11.5541 1.34617 11.3828L3.73236 9.86947C4.00245 9.6982 4.3613 9.77671 4.53382 10.045C4.70635 10.3132 4.62723 10.6695 4.3571 10.8408L1.97091 12.3541C1.87784 12.4134 1.76962 12.4448 1.65908 12.4448Z" fill="#00B1FF"/>
</svg>
