<svg width="20" height="26" viewBox="0 0 20 26" fill="none" xmlns="http://www.w3.org/2000/svg">
<path d="M2.40681 7.75684L1.57031 8.61894L6.7707 13.4907C6.7707 13.4907 18.646 10.7763 18.646 10.6739C18.646 10.5715 18.6972 8.74485 18.6972 8.74485C18.6972 8.74485 18.5393 8.53572 18.4348 8.42476C18.3302 8.31379 17.7754 7.81872 17.7754 7.81872L2.40681 7.75684Z" fill="#AC5811"/>
<path d="M4.78906 5.49663L5.08141 7.1931L14.0887 8.14697L17.2149 5.92128L11.7051 4.91406L4.78906 5.49663Z" fill="#8A460A"/>
<path d="M3.383 8.45632C3.383 8.45632 2.02369 8.1597 1.51795 7.52165C1.2192 7.14395 1.20212 6.59766 1.47313 6.10046C1.84444 5.424 2.88366 5.10605 3.34886 5.01002C3.81405 4.91399 6.251 4.07963 10.5338 4.20766C14.8166 4.3357 19.0674 5.28316 18.9863 6.78972C18.9052 8.29627 17.1575 8.28133 17.1575 8.28133L16.9014 5.69928L14.5712 5.72489C14.5712 5.72489 12.0254 5.44534 10.2948 5.37919C8.27397 5.3045 6.81223 5.49015 6.81223 5.49015L3.98904 5.98736L3.383 8.45632Z" fill="#E17F13"/>
<path d="M11.2734 7.36417C11.3375 7.30015 16.0854 2.45613 16.0854 2.45613C16.0854 2.45613 16.0172 1.74126 16.1025 1.38063C16.2476 0.770325 16.9198 -0.04697 17.4981 0.00211037C18.0764 0.0511908 19.6961 1.78181 19.615 2.247C19.5339 2.7122 19.0537 3.25849 18.5715 3.43347C18.0913 3.61059 17.5941 3.56151 17.5941 3.56151L13.5823 7.57329L11.2734 7.36417Z" fill="#AE5614"/>
<path d="M16.6283 2.39177C16.9847 2.47499 17.7999 1.78147 17.8959 1.62142C17.9919 1.46138 17.6548 1.22024 17.5438 0.947099C17.4328 0.673956 17.4307 0.449894 17.2066 0.498974C16.9826 0.548054 16.5985 0.968439 16.5003 1.31627C16.3552 1.83055 16.4192 2.34482 16.6283 2.39177Z" fill="#DF8116"/>
<path d="M1.6134 8.55273C1.6134 8.55273 -0.0980077 10.3431 0.00442097 12.9358C0.108984 15.5286 1.17168 18.5907 2.02739 20.172C2.88309 21.7532 4.07596 24.0365 4.54329 24.3481C5.01062 24.6596 6.39767 25.5879 9.65192 25.6455C13.4973 25.7138 15.2962 24.7898 15.7358 24.4014C16.1775 24.0131 17.2764 22.3529 18.2879 19.758C19.2994 17.1631 20.025 14.9076 19.9993 12.4962C19.9737 10.0849 18.6912 8.74906 18.6912 8.74906C18.6912 8.74906 15.4477 10.5693 9.97627 10.4391C4.50488 10.309 1.6134 8.55273 1.6134 8.55273Z" fill="#E07F14"/>
<path d="M9.86561 23.2658C14.923 23.3554 17.3536 21.915 17.3536 21.915C17.3536 21.915 17.855 20.8225 18.1559 20.1055C18.4675 19.3565 18.8815 18.1828 18.8815 18.1828C18.8815 18.1828 16.9161 19.9454 9.85708 19.9753C4.19789 19.9988 1.10156 18.0654 1.10156 18.0654C1.10156 18.0654 1.60944 19.397 2.04476 20.2228C2.65933 21.388 3.05411 22.0751 3.05411 22.0751C3.05411 22.0751 5.55934 23.1911 9.86561 23.2658Z" fill="#AC5811"/>
<path d="M7.18557 5.31317C7.23039 4.94401 7.0298 3.68499 4.50536 3.83223C1.78673 3.99014 1.98945 6.107 2.11962 6.51458C2.43758 7.52179 3.02014 7.80347 3.05429 8.33268C3.09056 8.8619 2.64884 10.0974 2.55921 12.2527C2.46959 14.408 2.68085 15.4131 2.7534 15.7118C2.88997 16.2709 3.29969 16.6294 3.74141 16.3477C4.18313 16.066 3.97187 15.2359 3.91853 14.7409C3.86518 14.2458 3.90786 12.0009 4.0679 11.1537C4.22581 10.3066 4.42 9.76242 4.93214 9.90539C5.44429 10.0484 5.27997 10.7696 5.2437 11.3693C5.20742 11.9689 5.19035 13.117 5.26077 13.6824C5.33119 14.2479 5.6278 14.5915 6.10367 14.5638C6.74172 14.5275 6.88469 14.0175 6.91883 13.1703C6.95511 12.3231 6.90176 11.7406 7.0426 10.9105C7.18344 10.0804 7.58889 9.65786 7.90684 9.49781C8.2248 9.3399 8.9482 9.21613 10.0429 9.25027C11.1376 9.28442 12.0019 9.35697 12.3369 9.83284C12.6719 10.3087 12.7786 11.4568 13.3953 11.9156C14.0141 12.3743 14.7183 11.9156 14.9488 12.4106C15.1793 12.9057 15.3201 14.0708 15.3372 15.4301C15.3543 16.7894 15.1963 18.5542 15.0896 19.3139C14.983 20.0736 14.7226 21.1491 15.0726 21.6975C15.3436 22.12 15.9368 22.0325 16.2014 21.5033C16.466 20.9741 16.6261 19.809 16.7477 18.4667C16.8715 17.1245 16.9248 12.8886 16.9782 12.3765C17.0315 11.8643 17.4092 10.7099 17.9491 9.02194C18.5359 7.18463 19.2039 5.70368 17.8403 4.87359C17.1126 4.42973 16.6581 4.49588 16.6581 4.49588L15.3244 5.83172C15.3244 5.83172 16.0841 5.95549 16.0777 6.24784C16.0691 6.75571 12.8298 7.2081 10.6041 7.24438C8.37844 7.28066 5.28211 6.84747 5.28211 6.28198C5.28211 5.71649 7.09595 6.03658 7.18557 5.31317Z" fill="#FFB803"/>
<path d="M16.3777 5.20506C16.2113 5.55502 16.5868 5.62331 16.6316 5.88578C16.6743 6.14825 16.5271 6.55797 16.7021 6.60065C16.877 6.64333 17.5919 6.40006 17.434 5.64038C17.2761 4.8807 16.4865 4.97246 16.3777 5.20506ZM13.2622 9.42597C13.0424 9.47932 13.0509 10.1558 13.3582 10.7703C13.6975 11.4511 14.2566 11.4596 14.3868 11.2334C14.5169 11.0072 14.1606 10.7703 13.9237 10.3521C13.5759 9.73112 13.4798 9.37476 13.2622 9.42597ZM4.91424 7.17467C4.74352 7.45849 5.10629 7.91515 6.0751 8.19469C7.0439 8.47424 7.54964 8.28218 7.57525 7.92368C7.59659 7.63134 6.76435 7.56518 6.25008 7.41794C5.73367 7.2707 5.14897 6.78203 4.91424 7.17467ZM4.14602 4.22558C3.88355 4.08048 2.96809 4.15516 2.87207 4.96606C2.79738 5.59343 3.5976 6.57717 4.06707 6.28269C4.34661 6.10771 3.85794 5.60197 3.99665 5.18372C4.10975 4.84869 4.51306 4.42617 4.14602 4.22558Z" fill="white"/>
<path d="M5.65819 13.0083C5.38291 13.0574 5.41919 13.6272 5.48107 13.8341C5.54296 14.0411 5.67526 14.374 5.99962 14.2908C6.24715 14.2268 6.21515 13.8192 6.1618 13.5802C6.10632 13.3391 5.96548 12.9528 5.65819 13.0083ZM3.10814 15.0612C2.835 15.0974 2.84354 15.3748 2.92463 15.7163C2.98224 15.9617 3.17643 16.2433 3.40903 16.1815C3.64163 16.1196 3.59468 15.8016 3.52639 15.569C3.46451 15.3663 3.39409 15.0227 3.10814 15.0612Z" fill="#FFFCFF"/>
<path d="M15.5177 20.1332C15.2275 20.1481 15.2488 20.5173 15.2382 20.8822C15.2275 21.2471 15.2211 21.5138 15.4857 21.5138C15.7524 21.5138 15.7396 21.0294 15.746 20.8054C15.7524 20.5813 15.8271 20.1182 15.5177 20.1332Z" fill="white"/>
</svg>
