<svg width="211" height="481" viewBox="0 0 211 481" fill="none" xmlns="http://www.w3.org/2000/svg">
<path d="M67.2552 126.911C59.4486 115.201 47.0684 104.66 35.2982 96.9087C33.8318 95.943 31.8613 95.828 30.5096 94.8564C27.5926 92.7599 25.6493 88.9724 22.8379 86.5984C21.8184 85.7375 17.5295 81.6889 15.9481 83.52C12.9621 86.9775 13.2481 96.4771 12.772 100.525C12.1002 106.235 11.3955 111.984 11.0129 117.725C10.8699 119.869 10.964 119.015 10.964 117.627C10.964 114.312 11.4045 111.24 11.6481 107.952C11.8034 105.855 10.2885 94.4801 13.0163 93.4882C21.2356 90.4994 28.7381 90.8496 37.3505 90.8496" stroke="#4E4E4E" stroke-width="3" stroke-linecap="round"/>
<path d="M30.3164 110.2C37.7763 108.363 43.0291 103.614 48.787 98.7656" stroke="#4E4E4E" stroke-width="3" stroke-linecap="round"/>
<path d="M126.186 63.5839C122.642 44.8298 119.171 23.2273 109.279 6.60861C107.667 3.90123 98.7675 -1.35403 98.0403 5.04497C97.0251 13.9791 98.2174 23.7709 99.3596 32.6042C99.5656 34.1971 99.8032 51.4066 105.077 47.6543C113.168 41.8969 114.752 29.5452 114.752 20.486" stroke="#4E4E4E" stroke-width="3" stroke-linecap="round"/>
<path d="M105.078 53.0292C111.546 48.9865 118.129 45.2557 123.549 39.8359" stroke="#4E4E4E" stroke-width="3" stroke-linecap="round"/>
<path d="M61.0985 323.931C47.9278 323.638 35.2175 320.622 22.2028 319.044C17.4947 318.474 16.9157 320.552 16.4369 325.201C15.234 336.879 15.9101 349.344 18.5869 360.774C22.9745 379.511 40.3158 390.777 59.1928 390.777C63.0065 390.777 66.9169 391.127 70.5292 389.653C74.1276 388.184 77.6851 385.976 80.5952 383.398C82.1775 381.997 82.9524 379.061 84.5532 377.974C87.7354 375.815 97.1235 377.552 100.581 377.388C110.862 376.901 120.872 374.945 131.169 374.945C140.727 374.945 147.633 374.98 156.579 378.707C165.315 382.348 174.444 386.14 181.89 392.145C186.358 395.748 186.734 402.076 189.513 406.706C191.343 409.757 191.22 411.598 191.272 415.209C191.415 425.245 192.151 435.27 192.151 445.309C192.151 449.322 195.365 454.391 196.598 458.258C198.693 464.829 200.947 471.785 200.947 478.732" stroke="#4E4E4E" stroke-width="3" stroke-linecap="round"/>
<path d="M91.0039 218.385C97.3659 218.385 103.85 219.032 109.865 216.625C113.457 215.189 116.086 212.88 119.15 211.348" stroke="#4E4E4E" stroke-width="3" stroke-linecap="round"/>
<path d="M121.79 210.469C121.654 221.325 120.91 232.152 120.91 243.012" stroke="#4E4E4E" stroke-width="3" stroke-linecap="round"/>
<path d="M168.404 138.346C167.786 150.086 165.965 161.696 164.397 173.332C163.775 177.944 162.335 182.323 167.719 182.323C176.53 182.323 184.038 181.613 192.151 177.925" stroke="#4E4E4E" stroke-width="3" stroke-linecap="round"/>
<path d="M145.534 227.18C145.534 230.438 143.698 237.946 148.075 238.956C151.812 239.819 157.667 240.31 161.366 238.81C169.173 235.645 163.684 210.469 171.237 210.469C173.73 210.469 181.012 213.006 177.491 207.048C176.347 205.111 170.001 201.14 168.403 201.673" stroke="#4E4E4E" stroke-width="3" stroke-linecap="round"/>
<path d="M189.516 67.9813C172.933 66.7376 156.777 64.8697 140.066 65.3426C133.062 65.5409 124.794 66.9576 119.152 71.4018C112.727 76.4624 106.897 83.8143 101.317 89.8235C93.7769 97.9432 84.3007 103.13 78.1551 112.447C73.4065 119.647 69.5164 126.63 66.6232 134.827C65.089 139.174 65.1485 142.205 61.4925 144.698C54.7841 149.272 52.5466 159.107 45.3674 163.852C35.0293 170.686 25.2108 173.527 13.1173 173.527C10.3043 173.527 7.1333 173.022 4.37062 173.234C1.08682 173.487 2.17174 181.839 2.17174 183.593C2.17174 189.319 2.28592 192.809 5.59222 197.666C8.06405 201.298 10.7043 208.616 14.5832 210.908C20.6044 214.466 28.3916 216.334 35.3992 215.697C36.9341 215.557 38.8174 215.088 40.3344 214.768C43.1122 214.184 41.7515 216.037 41.7515 219.557C41.7515 231.758 39.0125 243.646 40.3833 255.912C42.1111 271.371 47.0145 290.326 55.0425 303.945C63.7504 318.718 76.5427 329.838 90.6643 339.42C95.3267 342.584 100.982 343.895 106.008 346.408C113.14 349.974 118.894 351.196 126.775 351.196C133.683 351.196 140.617 351.426 147.493 350.61C159.689 349.162 166.454 346.094 175.834 338.59C188.551 328.416 199.642 319.517 208.866 306.339" stroke="#4E4E4E" stroke-width="3" stroke-linecap="round"/>
</svg>
