<svg width="263" height="460" viewBox="0 0 263 460" fill="none" xmlns="http://www.w3.org/2000/svg">
<path fill-rule="evenodd" clip-rule="evenodd" d="M211.082 26.2335C210.692 25.8429 210.692 25.2098 211.082 24.8193L217.668 18.2335C218.058 17.8429 218.692 17.8429 219.082 18.2335L225.668 24.8193C226.058 25.2098 226.058 25.8429 225.668 26.2335L225.082 26.8193C224.692 27.2098 224.058 27.2098 223.668 26.8193L219.082 22.2335C218.692 21.8429 218.058 21.8429 217.668 22.2335L213.082 26.8193C212.692 27.2098 212.058 27.2098 211.668 26.8193L211.082 26.2335Z" fill="#EFEFEF"/>
<path fill-rule="evenodd" clip-rule="evenodd" d="M257.374 16.2673V19.5263C257.768 19.5263 258.158 19.6039 258.522 19.7546C258.886 19.9054 259.217 20.1264 259.496 20.405C259.774 20.6835 259.995 21.0143 260.146 21.3782C260.297 21.7422 260.374 22.1323 260.374 22.5263C260.374 22.9203 260.297 23.3104 260.146 23.6743C259.995 24.0383 259.774 24.369 259.496 24.6476C259.217 24.9262 258.886 25.1472 258.522 25.2979C258.158 25.4487 257.768 25.5263 257.374 25.5263V28.5263C257.374 30.1743 255.493 31.1153 254.174 30.1263L252.114 28.5803C251.013 27.7546 249.731 27.2034 248.374 26.9723V29.8163C248.374 30.47 248.138 31.1018 247.709 31.5951C247.28 32.0884 246.687 32.41 246.04 32.5006C245.392 32.5912 244.734 32.4447 244.186 32.0881C243.638 31.7316 243.238 31.1889 243.058 30.5603L241.488 25.0643C240.923 24.3971 240.556 23.5855 240.426 22.7208C240.297 21.8561 240.412 20.9725 240.758 20.1694C241.103 19.3663 241.666 18.6755 242.383 18.1747C243.099 17.6738 243.941 17.3828 244.814 17.3343L247.832 17.1663C249.309 17.0841 250.745 16.6526 252.022 15.9073L254.366 14.5393C255.7 13.7623 257.374 14.7233 257.374 16.2673ZM244.008 26.6043L244.981 30.0113C245.028 30.1762 245.133 30.3186 245.277 30.4122C245.42 30.5058 245.593 30.5443 245.763 30.5205C245.932 30.4967 246.088 30.4123 246.2 30.2829C246.313 30.1535 246.374 29.9877 246.374 29.8163V26.8063L244.814 26.7193C244.543 26.7042 244.273 26.6657 244.008 26.6043ZM255.374 16.2673L253.029 17.6363C251.605 18.4667 250.016 18.9766 248.374 19.1303V24.9493C250.161 25.1953 251.862 25.8923 253.314 26.9803L255.374 28.5263V16.2673ZM246.374 19.2503L244.924 19.3303C244.25 19.3675 243.614 19.6563 243.142 20.1396C242.669 20.6229 242.396 21.2656 242.374 21.9409C242.353 22.6161 242.586 23.2748 243.026 23.787C243.467 24.2991 244.083 24.6275 244.754 24.7073L244.924 24.7223L246.374 24.8023V19.2503ZM257.374 21.5263V23.5263C257.629 23.526 257.874 23.4284 258.06 23.2534C258.245 23.0785 258.356 22.8393 258.371 22.5849C258.386 22.3304 258.304 22.0799 258.14 21.8845C257.976 21.689 257.744 21.5634 257.491 21.5333L257.374 21.5263Z" fill="#EFEFEF"/>
<path d="M21.5352 131.107C28.1366 124.066 41.5589 120.153 50.2671 116.741C63.9564 111.379 77.9041 110.108 92.4855 109.998C104.796 109.905 116.304 109.929 128.058 114.005C137.055 117.124 145.832 121.203 154.152 125.83C166.599 132.753 175.636 142.809 183.959 154.171C192.266 165.512 201.922 176.243 206.338 189.842C208.447 196.335 208.656 209.7 218.945 205.478C225.219 202.904 235.595 203.617 242.498 204.11C247.094 204.438 245.494 212.196 244.843 214.86C243.128 221.879 239.081 228.216 233.409 232.647C229.939 235.358 226.28 240.841 222.366 242.615C220.592 243.419 213.104 242.71 213.863 245.205C214.982 248.881 217.562 252.196 219.434 255.515C221.278 258.784 222.395 262.645 224.418 265.728C229.516 273.496 234.717 282.115 237.856 290.941C243.635 307.195 226.718 320.621 218.896 333.453C213.898 341.654 210.587 346.338 202.38 351.581C193.701 357.127 184.266 361 175.554 366.387C161.179 375.277 141.815 377.868 125.078 379.043C108.271 380.222 89.0436 375.409 75.432 365.654C64.4596 357.791 52.4782 352.945 40.7387 346.646C36.818 344.542 29.7868 344.966 28.5716 341.32" stroke="#4E4E4E" stroke-width="3" stroke-linecap="round"/>
<path d="M149.949 131.107C151.067 127.754 153.826 125.029 155.471 121.921C158.103 116.949 160.104 111.931 163.045 107.066C165.867 102.399 166.831 98.4277 171.058 95.0459" stroke="#4E4E4E" stroke-width="3" stroke-linecap="round"/>
<path d="M159.625 79.2137C166.565 81.7737 173.351 84.8237 180.343 87.2274C182.924 88.1144 187.083 88.3966 189.139 90.4524C193.362 94.6754 193.014 88.3848 193.048 84.6864C193.085 80.6497 192.801 76.5715 193.439 72.5682C194.383 66.6381 199.629 57.1057 192.559 53.9022C186.6 51.2019 178.653 47.3185 171.646 48.6249C167.556 49.3873 168.605 74.2632 168.421 76.575" stroke="#4E4E4E" stroke-width="3" stroke-linecap="round"/>
<path d="M157.867 93.2866C161.59 97.4743 164.632 102.338 169.252 105.649C172.279 107.818 175.95 109.471 179.172 111.366C181.552 112.766 185.207 113.37 187.772 114.396" stroke="#4E4E4E" stroke-width="3" stroke-linecap="round"/>
<path d="M77.8281 41.3931V107.359" stroke="#4E4E4E" stroke-width="3" stroke-linecap="round"/>
<path d="M58.4766 59.8637C59.8629 46.5544 67.4952 33.6242 74.6017 22.6294C78.4489 16.677 82.8988 11.2722 87.4529 5.86906C89.7477 3.14632 91.2715 -0.387953 92.9745 4.25656C96.1822 13.005 100.518 20.3954 105.288 28.3465C106.828 30.9124 107.47 34.5112 110.37 35.2363" stroke="#4E4E4E" stroke-width="3" stroke-linecap="round"/>
<path d="M65.5156 69.5386C72.0056 72.7835 80.4012 72.1772 87.5044 72.1772" stroke="#4E4E4E" stroke-width="3" stroke-linecap="round"/>
<path d="M48.8033 197.074C44.9087 194.693 44.4537 191.149 40.0078 190.037" stroke="#4E4E4E" stroke-width="3" stroke-linecap="round"/>
<path d="M110.371 210.267C112.252 210.267 114.164 210.166 116.039 210.316C118.349 210.5 118.974 212.25 120.926 212.808C123.589 213.569 125.024 212.606 127.083 214.665" stroke="#4E4E4E" stroke-width="3" stroke-linecap="round"/>
<path d="M47.0448 235.774C45.7623 230.388 34.1724 222.581 28.5742 222.581" stroke="#4E4E4E" stroke-width="3" stroke-linecap="round"/>
<path d="M94.5391 243.69H120.046" stroke="#4E4E4E" stroke-width="3" stroke-linecap="round"/>
<path d="M58.479 255.124C52.8358 255.124 53.1709 254.301 54.4721 259.913C55.9438 266.259 56.4368 267.794 62.6813 264.994C63.5858 264.589 69.8493 259.417 68.7404 257.958C66.2975 254.744 61.2386 258.884 59.3585 255.124" stroke="#4E4E4E" stroke-width="3" stroke-linecap="round"/>
<path d="M34.7305 267.438C36.8168 268.481 35.2524 270.833 38.4441 270.956C39.9983 271.016 41.1712 271.835 42.8419 271.835C45.5435 271.835 46.5035 271.587 48.6078 269.783C49.3618 269.137 50.3532 269.426 51.051 268.806C51.1868 268.685 51.9778 266.997 52.2726 267.144C52.7353 267.376 52.3215 271.935 52.3215 272.715C52.3215 276.412 53.1403 279.709 54.1294 283.269C56.2073 290.75 64.5503 292.629 71.2807 294.117C74.6556 294.863 86.2299 298.039 87.5035 292.945" stroke="#4E4E4E" stroke-width="3" stroke-linecap="round"/>
<path d="M101.576 379.141C101.576 390.794 103.164 403.47 100.11 414.811C96.5123 428.176 93.5005 436.795 81.6399 443.543C70.0139 450.158 58.4375 446.866 45.2852 446.866" stroke="#4E4E4E" stroke-width="3" stroke-linecap="round"/>
<path d="M28.573 142.542C20.06 139.374 10.827 131.103 4.82518 124.364C2.87075 122.17 10.8968 124.096 11.715 124.56C15.6743 126.803 16.8778 131.107 21.5366 131.107" stroke="#4E4E4E" stroke-width="3" stroke-linecap="round"/>
<path d="M20.6588 334.283C31.5336 338.214 46.7507 344.079 48.7556 357.445C49.21 360.474 50.17 364.651 49.684 367.706C49.1461 371.087 41.0564 374.78 38.6896 376.502C32.432 381.053 23.7855 389.533 16.1633 383.733C10.3559 379.315 4.95448 375.185 3.45872 367.706C1.89253 359.875 1.67947 350.184 2.38372 342.297C3.28497 332.203 17.5364 336.543 24.177 337.606C27.7967 338.185 28.0547 341.32 31.2134 341.32" stroke="#4E4E4E" stroke-width="3" stroke-linecap="round"/>
<path d="M32.9719 414.322C44.8032 416.951 55.4187 429.69 58.3322 441.344C60.4414 449.781 58.7882 457.389 48.9992 458.202C30.6846 459.723 19.7463 446.841 14.9899 430.496C13.0696 423.897 9.82583 414.322 18.8502 414.322C22.0915 414.322 25.3328 414.322 28.5741 414.322" stroke="#4E4E4E" stroke-width="3" stroke-linecap="round"/>
</svg>
